<svg width="40" height="40" viewBox="0 0 40 40" fill="none" xmlns="http://www.w3.org/2000/svg">
<path d="M36.8427 15.5455C39.0232 23.6811 36.654 30.6548 29.8425 35.1966C23.0309 39.7384 14.9452 39.7384 8.75673 35.1966C2.56824 30.6548 0.199045 23.6811 2.37955 15.5455C4.56005 7.40991 10.6627 0.814819 19.6109 0.814819C28.5591 0.814819 34.6617 7.40991 36.8427 15.5455Z" fill="white"/>
<path d="M16 11H22C24.2091 11 26 12.7909 26 15C26 16.5 25.2 17.8 24 18.5C25.5 19.2 26.5 20.7 26.5 22.5C26.5 25.5376 24.0376 28 21 28H16V11ZM19 13.5V17.5H21.5C22.8807 17.5 24 16.3807 24 15C24 13.6193 22.8807 12.5 21.5 12.5H19ZM19 20V25.5H21C22.6569 25.5 24 24.1569 24 22.5C24 20.8431 22.6569 19.5 21 19.5H19V20Z" fill="black"/>
</svg>
